<svg width="20" height="20" viewBox="0 0 20 20" fill="none" xmlns="http://www.w3.org/2000/svg">
<path d="M1.06409 5.54688V17.2703C1.06409 17.7578 1.51721 18.0844 2.05159 18.4594C2.60315 18.8469 2.90784 18.8109 3.1719 18.8109L18.15 18.9078C18.7391 18.9078 18.936 18.5062 18.936 18.0734V5.54688H1.06409Z" fill="#BDBDBD"/>
<path opacity="0.29" d="M18.936 18.0719L17.6422 16.7422V5.54688L18.936 6.33125V18.0719Z" fill="url(#paint0_linear_412_2272)"/>
<path d="M18.936 6.44063L17.9266 5.80781L16.3469 2.1875H17.1969C18.7047 2.1875 18.936 3.05781 18.936 3.35469V6.44063Z" fill="#C62828"/>
<path d="M1.52344 5.67627V16.9466C1.52344 17.3685 1.86563 17.7091 2.28594 17.7091H17.1063C17.5281 17.7091 17.9219 17.395 17.9219 16.9731V5.67627H1.52344Z" fill="#FAFAFA"/>
<path d="M17.9266 5.80781H1.06409V2.89844C1.06409 2.50625 1.46565 2.1875 1.96252 2.1875H17.0547C17.5531 2.1875 17.9563 2.50781 17.9531 2.90312L17.9266 5.80781Z" fill="#F44336"/>
<path d="M16.2047 18.2217C15.7078 18.2826 15.211 18.3076 14.7141 18.3514C14.2172 18.3826 13.7203 18.4107 13.2235 18.4279C12.7266 18.4529 12.2297 18.4576 11.7328 18.4717L10.2422 18.4857L8.7516 18.4717C8.25472 18.4576 7.75785 18.4514 7.26097 18.4279C6.7641 18.4107 6.26722 18.3826 5.77035 18.3514C5.27347 18.3076 4.7766 18.2811 4.27972 18.2217V18.1904L10.2407 18.1748L16.2016 18.1904V18.2217H16.2047Z" fill="#757575"/>
<path d="M6.63434 7.04346V8.93721H2.52496V16.6325H10.6734V14.7153H16.7265V7.04346H6.63434Z" fill="#B3E5FC"/>
<path d="M2.52344 3.09375C2.52344 3.2305 2.57217 3.36165 2.6589 3.45835C2.74564 3.55505 2.86328 3.60938 2.98594 3.60938C3.1086 3.60938 3.22624 3.55505 3.31297 3.45835C3.39971 3.36165 3.44844 3.2305 3.44844 3.09375C3.44844 2.957 3.39971 2.82585 3.31297 2.72915C3.22624 2.63245 3.1086 2.57812 2.98594 2.57812C2.86328 2.57812 2.74564 2.63245 2.6589 2.72915C2.57217 2.82585 2.52344 2.957 2.52344 3.09375Z" fill="#AF1E1E"/>
<path d="M3.20001 2.66855C3.13595 2.53418 3.0922 2.36699 3.0922 2.1873C3.0922 1.77012 3.30939 1.41699 3.5672 1.41699C3.82501 1.41699 4.0422 1.77012 4.0422 2.1873H4.7422C4.7422 1.33262 4.21564 0.635742 3.56876 0.635742C2.92189 0.635742 2.39532 1.33105 2.39532 2.1873C2.39532 2.49199 2.46251 2.7748 2.57657 3.01543C2.68126 3.23262 2.9047 3.32949 3.10314 3.2248C3.26876 3.13418 3.29064 2.85605 3.20001 2.66855Z" fill="#94D1E0"/>
<path d="M4.74218 2.18711C4.74218 1.66367 4.54374 1.20117 4.24374 0.919922C4.24686 0.929297 4.3328 1.15273 4.21093 1.3668C4.08749 1.58555 3.83124 1.55117 3.83124 1.55117C3.9578 1.6918 4.04218 1.92617 4.04218 2.18711H4.74218Z" fill="#2F7889"/>
<path d="M5.09839 3.09375C5.09839 3.2305 5.14712 3.36165 5.23385 3.45835C5.32059 3.55505 5.43823 3.60938 5.56089 3.60938C5.68355 3.60938 5.80119 3.55505 5.88793 3.45835C5.97466 3.36165 6.02339 3.2305 6.02339 3.09375C6.02339 2.957 5.97466 2.82585 5.88793 2.72915C5.80119 2.63245 5.68355 2.57812 5.56089 2.57812C5.43823 2.57812 5.32059 2.63245 5.23385 2.72915C5.14712 2.82585 5.09839 2.957 5.09839 3.09375Z" fill="#AF1E1E"/>
<path d="M5.77502 2.66855C5.71096 2.53418 5.66721 2.36699 5.66721 2.1873C5.66721 1.77012 5.8844 1.41699 6.14221 1.41699C6.40002 1.41699 6.61721 1.77012 6.61721 2.1873H7.31721C7.31721 1.33262 6.79065 0.635742 6.14377 0.635742C5.4969 0.635742 4.97034 1.33105 4.97034 2.1873C4.97034 2.49199 5.03752 2.7748 5.15159 3.01543C5.25627 3.23262 5.47971 3.32949 5.67815 3.2248C5.84377 3.13418 5.86565 2.85605 5.77502 2.66855Z" fill="#94D1E0"/>
<path d="M6.81875 0.919922C6.82187 0.929297 6.90781 1.15273 6.78594 1.3668C6.6625 1.58398 6.40625 1.55117 6.40625 1.55117C6.53281 1.6918 6.61719 1.92617 6.61719 2.18711H7.31875C7.31875 1.66367 7.11875 1.20117 6.81875 0.919922Z" fill="#2F7889"/>
<path d="M7.67188 3.09375C7.67188 3.2305 7.7206 3.36165 7.80734 3.45835C7.89407 3.55505 8.01171 3.60938 8.13438 3.60938C8.25704 3.60938 8.37468 3.55505 8.46141 3.45835C8.54815 3.36165 8.59688 3.2305 8.59688 3.09375C8.59688 2.957 8.54815 2.82585 8.46141 2.72915C8.37468 2.63245 8.25704 2.57812 8.13438 2.57812C8.01171 2.57812 7.89407 2.63245 7.80734 2.72915C7.7206 2.82585 7.67188 2.957 7.67188 3.09375Z" fill="#AF1E1E"/>
<path d="M8.34998 2.66855C8.28591 2.53418 8.24216 2.36699 8.24216 2.1873C8.24216 1.77012 8.45935 1.41699 8.71716 1.41699C8.97498 1.41699 9.19216 1.77012 9.19216 2.1873H9.89216C9.89216 1.33262 9.3656 0.635742 8.71873 0.635742C8.07185 0.635742 7.54529 1.33105 7.54529 2.1873C7.54529 2.49199 7.61248 2.7748 7.72654 3.01543C7.83123 3.23262 8.05466 3.32949 8.2531 3.2248C8.41873 3.13418 8.4406 2.85605 8.34998 2.66855Z" fill="#94D1E0"/>
<path d="M9.39218 0.919922C9.3953 0.929297 9.48124 1.15273 9.35936 1.3668C9.23593 1.58555 8.97968 1.55117 8.97968 1.55117C9.10624 1.6918 9.19061 1.92617 9.19061 2.18711H9.8953C9.89686 1.66367 9.69374 1.20117 9.39218 0.919922Z" fill="#2F7889"/>
<path d="M10.2469 3.09375C10.2469 3.2305 10.2956 3.36165 10.3823 3.45835C10.4691 3.55505 10.5867 3.60938 10.7094 3.60938C10.832 3.60938 10.9497 3.55505 11.0364 3.45835C11.1232 3.36165 11.1719 3.2305 11.1719 3.09375C11.1719 2.957 11.1232 2.82585 11.0364 2.72915C10.9497 2.63245 10.832 2.57812 10.7094 2.57812C10.5867 2.57812 10.4691 2.63245 10.3823 2.72915C10.2956 2.82585 10.2469 2.957 10.2469 3.09375Z" fill="#AF1E1E"/>
<path d="M10.925 2.66855C10.8609 2.53418 10.8172 2.36699 10.8172 2.1873C10.8172 1.77012 11.0344 1.41699 11.2922 1.41699C11.55 1.41699 11.7672 1.77012 11.7672 2.1873H12.4672C12.4672 1.33262 11.9406 0.635742 11.2937 0.635742C10.6469 0.635742 10.1203 1.33105 10.1203 2.1873C10.1203 2.49199 10.1875 2.7748 10.3016 3.01543C10.4062 3.23262 10.6297 3.32949 10.8281 3.2248C10.9937 3.13418 11.0141 2.85605 10.925 2.66855Z" fill="#94D1E0"/>
<path d="M11.9672 0.919922C11.9703 0.929297 12.0563 1.15273 11.9344 1.3668C11.8109 1.58555 11.5547 1.55117 11.5547 1.55117C11.6813 1.6918 11.7656 1.92617 11.7656 2.18711H12.4719C12.4734 1.66367 12.2687 1.20117 11.9672 0.919922Z" fill="#2F7889"/>
<path d="M12.8218 3.09375C12.8218 3.2305 12.8706 3.36165 12.9573 3.45835C13.044 3.55505 13.1617 3.60938 13.2843 3.60938C13.407 3.60938 13.5246 3.55505 13.6114 3.45835C13.6981 3.36165 13.7468 3.2305 13.7468 3.09375C13.7468 2.957 13.6981 2.82585 13.6114 2.72915C13.5246 2.63245 13.407 2.57812 13.2843 2.57812C13.1617 2.57812 13.044 2.63245 12.9573 2.72915C12.8706 2.82585 12.8218 2.957 12.8218 3.09375Z" fill="#AF1E1E"/>
<path d="M13.4984 2.66855C13.4344 2.53418 13.3906 2.36699 13.3906 2.1873C13.3906 1.77012 13.6078 1.41699 13.8656 1.41699C14.1234 1.41699 14.3406 1.77012 14.3406 2.1873H15.0406C15.0406 1.33262 14.514 0.635742 13.8672 0.635742C13.2203 0.635742 12.6937 1.33105 12.6937 2.1873C12.6937 2.49199 12.7609 2.7748 12.875 3.01543C12.9797 3.23262 13.2031 3.32949 13.4015 3.2248C13.5672 3.13418 13.589 2.85605 13.4984 2.66855Z" fill="#94D1E0"/>
<path d="M14.5421 0.919922C14.5453 0.929297 14.6312 1.15273 14.5093 1.3668C14.3859 1.58555 14.1296 1.55117 14.1296 1.55117C14.2562 1.6918 14.3406 1.92617 14.3406 2.18711H15.05C15.05 1.66367 14.8421 1.20117 14.5421 0.919922Z" fill="#2F7889"/>
<path d="M15.3969 3.09375C15.3969 3.2305 15.4456 3.36165 15.5323 3.45835C15.619 3.55505 15.7367 3.60938 15.8594 3.60938C15.982 3.60938 16.0997 3.55505 16.1864 3.45835C16.2731 3.36165 16.3219 3.2305 16.3219 3.09375C16.3219 2.957 16.2731 2.82585 16.1864 2.72915C16.0997 2.63245 15.982 2.57812 15.8594 2.57812C15.7367 2.57812 15.619 2.63245 15.5323 2.72915C15.4456 2.82585 15.3969 2.957 15.3969 3.09375Z" fill="#AF1E1E"/>
<path d="M16.0734 2.66855C16.0094 2.53418 15.9656 2.36699 15.9656 2.1873C15.9656 1.77012 16.1828 1.41699 16.4406 1.41699C16.6984 1.41699 16.9156 1.77012 16.9156 2.1873H17.6156C17.6156 1.33262 17.0891 0.635742 16.4422 0.635742C15.7953 0.635742 15.2687 1.33105 15.2687 2.1873C15.2687 2.49199 15.3359 2.7748 15.45 3.01543C15.5547 3.23262 15.7781 3.32949 15.9766 3.2248C16.1422 3.13418 16.1641 2.85605 16.0734 2.66855Z" fill="#94D1E0"/>
<path d="M17.625 2.21563C17.6016 1.5875 17.3984 1.18437 17.1156 0.921875C17.1187 0.93125 17.2047 1.15469 17.0828 1.36875C16.9594 1.5875 16.7031 1.55312 16.7031 1.55312C16.8297 1.69375 16.8922 1.92813 16.8922 2.18906H17.1312C17.3297 2.18594 17.625 2.21563 17.625 2.21563Z" fill="#2F7889"/>
<path d="M2.60309 7.0498V16.6326" stroke="#1E88E5" stroke-width="0.15625" stroke-miterlimit="10" stroke-linecap="square"/>
<path d="M4.62024 7.0498V16.6326" stroke="#1E88E5" stroke-width="0.15625" stroke-miterlimit="10" stroke-linecap="square"/>
<path d="M6.63745 7.0498V16.6326" stroke="#1E88E5" stroke-width="0.15625" stroke-miterlimit="10" stroke-linecap="square"/>
<path d="M8.65619 7.0498V16.6326" stroke="#1E88E5" stroke-width="0.15625" stroke-miterlimit="10" stroke-linecap="square"/>
<path d="M10.6734 7.0498V16.6326" stroke="#1E88E5" stroke-width="0.15625" stroke-miterlimit="10" stroke-linecap="square"/>
<path d="M12.6906 7.0498V16.6326" stroke="#1E88E5" stroke-width="0.15625" stroke-miterlimit="10" stroke-linecap="square"/>
<path d="M14.7094 7.0498V16.6326" stroke="#1E88E5" stroke-width="0.15625" stroke-miterlimit="10" stroke-linecap="square"/>
<path d="M16.7266 7.0498V16.6326" stroke="#1E88E5" stroke-width="0.15625" stroke-miterlimit="10" stroke-linecap="square"/>
<path d="M2.60309 16.6328H16.7265" stroke="#1E88E5" stroke-width="0.15625" stroke-miterlimit="10" stroke-linecap="square"/>
<path d="M2.60309 14.7153H16.7265" stroke="#1E88E5" stroke-width="0.15625" stroke-miterlimit="10" stroke-linecap="square"/>
<path d="M2.60309 12.7998H16.7265" stroke="#1E88E5" stroke-width="0.15625" stroke-miterlimit="10" stroke-linecap="square"/>
<path d="M2.60309 10.8823H16.7265" stroke="#1E88E5" stroke-width="0.15625" stroke-miterlimit="10" stroke-linecap="square"/>
<path d="M2.60309 8.9668H16.7265" stroke="#1E88E5" stroke-width="0.15625" stroke-miterlimit="10" stroke-linecap="square"/>
<path d="M2.60309 7.0498H16.7265" stroke="#1E88E5" stroke-width="0.15625" stroke-miterlimit="10" stroke-linecap="square"/>
<path d="M16.0031 7.51865C16.0031 7.57087 16.0239 7.62094 16.0608 7.65786C16.0977 7.69479 16.1478 7.71553 16.2 7.71553C16.2522 7.71553 16.3023 7.69479 16.3392 7.65786C16.3761 7.62094 16.3969 7.57087 16.3969 7.51865C16.3969 7.46644 16.3761 7.41636 16.3392 7.37944C16.3023 7.34252 16.2522 7.32178 16.2 7.32178C16.1478 7.32178 16.0977 7.34252 16.0608 7.37944C16.0239 7.41636 16.0031 7.46644 16.0031 7.51865Z" fill="#1E88E5"/>
<path d="M13.975 7.51865C13.975 7.57087 13.9957 7.62094 14.0326 7.65786C14.0696 7.69479 14.1196 7.71553 14.1718 7.71553C14.2241 7.71553 14.2741 7.69479 14.3111 7.65786C14.348 7.62094 14.3687 7.57087 14.3687 7.51865C14.3687 7.46644 14.348 7.41636 14.3111 7.37944C14.2741 7.34252 14.2241 7.32178 14.1718 7.32178C14.1196 7.32178 14.0696 7.34252 14.0326 7.37944C13.9957 7.41636 13.975 7.46644 13.975 7.51865Z" fill="#1E88E5"/>
<path d="M11.9469 7.51865C11.9469 7.54451 11.952 7.57011 11.9619 7.59399C11.9718 7.61788 11.9863 7.63958 12.0046 7.65786C12.0228 7.67615 12.0445 7.69065 12.0684 7.70054C12.0923 7.71043 12.1179 7.71553 12.1438 7.71553C12.1696 7.71553 12.1952 7.71043 12.2191 7.70054C12.243 7.69065 12.2647 7.67615 12.283 7.65786C12.3013 7.63958 12.3158 7.61788 12.3257 7.59399C12.3356 7.57011 12.3407 7.54451 12.3407 7.51865C12.3407 7.4928 12.3356 7.4672 12.3257 7.44331C12.3158 7.41943 12.3013 7.39772 12.283 7.37944C12.2647 7.36116 12.243 7.34666 12.2191 7.33676C12.1952 7.32687 12.1696 7.32178 12.1438 7.32178C12.1179 7.32178 12.0923 7.32687 12.0684 7.33676C12.0445 7.34666 12.0228 7.36116 12.0046 7.37944C11.9863 7.39772 11.9718 7.41943 11.9619 7.44331C11.952 7.4672 11.9469 7.4928 11.9469 7.51865Z" fill="#1E88E5"/>
<path d="M9.91718 7.51865C9.91718 7.57087 9.93792 7.62094 9.97484 7.65786C10.0118 7.69479 10.0618 7.71553 10.1141 7.71553C10.1663 7.71553 10.2163 7.69479 10.2533 7.65786C10.2902 7.62094 10.3109 7.57087 10.3109 7.51865C10.3109 7.46644 10.2902 7.41636 10.2533 7.37944C10.2163 7.34252 10.1663 7.32178 10.1141 7.32178C10.0618 7.32178 10.0118 7.34252 9.97484 7.37944C9.93792 7.41636 9.91718 7.46644 9.91718 7.51865Z" fill="#1E88E5"/>
<path d="M7.88904 7.51865C7.88904 7.57087 7.90978 7.62094 7.9467 7.65786C7.98362 7.69479 8.0337 7.71553 8.08591 7.71553C8.13813 7.71553 8.1882 7.69479 8.22512 7.65786C8.26205 7.62094 8.28279 7.57087 8.28279 7.51865C8.28279 7.46644 8.26205 7.41636 8.22512 7.37944C8.1882 7.34252 8.13813 7.32178 8.08591 7.32178C8.0337 7.32178 7.98362 7.34252 7.9467 7.37944C7.90978 7.41636 7.88904 7.46644 7.88904 7.51865Z" fill="#1E88E5"/>
<path d="M5.86096 7.51865C5.86096 7.57087 5.8817 7.62094 5.91863 7.65786C5.95555 7.69479 6.00562 7.71553 6.05784 7.71553C6.11005 7.71553 6.16013 7.69479 6.19705 7.65786C6.23397 7.62094 6.25471 7.57087 6.25471 7.51865C6.25471 7.46644 6.23397 7.41636 6.19705 7.37944C6.16013 7.34252 6.11005 7.32178 6.05784 7.32178C6.00562 7.32178 5.95555 7.34252 5.91863 7.37944C5.8817 7.41636 5.86096 7.46644 5.86096 7.51865Z" fill="#1E88E5"/>
<path d="M3.83282 7.51865C3.83282 7.57087 3.85357 7.62094 3.89049 7.65786C3.92741 7.69479 3.97749 7.71553 4.0297 7.71553C4.08191 7.71553 4.13199 7.69479 4.16891 7.65786C4.20583 7.62094 4.22657 7.57087 4.22657 7.51865C4.22657 7.46644 4.20583 7.41636 4.16891 7.37944C4.13199 7.34252 4.08191 7.32178 4.0297 7.32178C3.97749 7.32178 3.92741 7.34252 3.89049 7.37944C3.85357 7.41636 3.83282 7.46644 3.83282 7.51865Z" fill="#1E88E5"/>
<path d="M16.0031 9.43564C16.0031 9.48786 16.0239 9.53794 16.0608 9.57486C16.0977 9.61178 16.1478 9.63252 16.2 9.63252C16.2522 9.63252 16.3023 9.61178 16.3392 9.57486C16.3761 9.53794 16.3969 9.48786 16.3969 9.43564C16.3969 9.38343 16.3761 9.33335 16.3392 9.29643C16.3023 9.25951 16.2522 9.23877 16.2 9.23877C16.1478 9.23877 16.0977 9.25951 16.0608 9.29643C16.0239 9.33335 16.0031 9.38343 16.0031 9.43564Z" fill="#1E88E5"/>
<path d="M13.975 9.43564C13.975 9.48786 13.9957 9.53794 14.0326 9.57486C14.0696 9.61178 14.1196 9.63252 14.1718 9.63252C14.2241 9.63252 14.2741 9.61178 14.3111 9.57486C14.348 9.53794 14.3687 9.48786 14.3687 9.43564C14.3687 9.38343 14.348 9.33335 14.3111 9.29643C14.2741 9.25951 14.2241 9.23877 14.1718 9.23877C14.1196 9.23877 14.0696 9.25951 14.0326 9.29643C13.9957 9.33335 13.975 9.38343 13.975 9.43564Z" fill="#1E88E5"/>
<path d="M11.9469 9.43564C11.9469 9.4615 11.952 9.4871 11.9619 9.51099C11.9718 9.53487 11.9863 9.55657 12.0046 9.57486C12.0228 9.59314 12.0445 9.60764 12.0684 9.61753C12.0923 9.62743 12.1179 9.63252 12.1438 9.63252C12.1696 9.63252 12.1952 9.62743 12.2191 9.61753C12.243 9.60764 12.2647 9.59314 12.283 9.57486C12.3013 9.55657 12.3158 9.53487 12.3257 9.51099C12.3356 9.4871 12.3407 9.4615 12.3407 9.43564C12.3407 9.40979 12.3356 9.38419 12.3257 9.3603C12.3158 9.33642 12.3013 9.31471 12.283 9.29643C12.2647 9.27815 12.243 9.26365 12.2191 9.25376C12.1952 9.24386 12.1696 9.23877 12.1438 9.23877C12.1179 9.23877 12.0923 9.24386 12.0684 9.25376C12.0445 9.26365 12.0228 9.27815 12.0046 9.29643C11.9863 9.31471 11.9718 9.33642 11.9619 9.3603C11.952 9.38419 11.9469 9.40979 11.9469 9.43564Z" fill="#1E88E5"/>
<path d="M9.91718 9.43564C9.91718 9.48786 9.93792 9.53794 9.97484 9.57486C10.0118 9.61178 10.0618 9.63252 10.1141 9.63252C10.1663 9.63252 10.2163 9.61178 10.2533 9.57486C10.2902 9.53794 10.3109 9.48786 10.3109 9.43564C10.3109 9.38343 10.2902 9.33335 10.2533 9.29643C10.2163 9.25951 10.1663 9.23877 10.1141 9.23877C10.0618 9.23877 10.0118 9.25951 9.97484 9.29643C9.93792 9.33335 9.91718 9.38343 9.91718 9.43564Z" fill="#1E88E5"/>
<path d="M7.88904 9.43564C7.88904 9.48786 7.90978 9.53794 7.9467 9.57486C7.98362 9.61178 8.0337 9.63252 8.08591 9.63252C8.13813 9.63252 8.1882 9.61178 8.22512 9.57486C8.26205 9.53794 8.28279 9.48786 8.28279 9.43564C8.28279 9.38343 8.26205 9.33335 8.22512 9.29643C8.1882 9.25951 8.13813 9.23877 8.08591 9.23877C8.0337 9.23877 7.98362 9.25951 7.9467 9.29643C7.90978 9.33335 7.88904 9.38343 7.88904 9.43564Z" fill="#1E88E5"/>
<path d="M5.86096 9.43564C5.86096 9.48786 5.8817 9.53794 5.91863 9.57486C5.95555 9.61178 6.00562 9.63252 6.05784 9.63252C6.11005 9.63252 6.16013 9.61178 6.19705 9.57486C6.23397 9.53794 6.25471 9.48786 6.25471 9.43564C6.25471 9.38343 6.23397 9.33335 6.19705 9.29643C6.16013 9.25951 6.11005 9.23877 6.05784 9.23877C6.00562 9.23877 5.95555 9.25951 5.91863 9.29643C5.8817 9.33335 5.86096 9.38343 5.86096 9.43564Z" fill="#1E88E5"/>
<path d="M3.83282 9.43564C3.83282 9.48786 3.85357 9.53794 3.89049 9.57486C3.92741 9.61178 3.97749 9.63252 4.0297 9.63252C4.08191 9.63252 4.13199 9.61178 4.16891 9.57486C4.20583 9.53794 4.22657 9.48786 4.22657 9.43564C4.22657 9.38343 4.20583 9.33335 4.16891 9.29643C4.13199 9.25951 4.08191 9.23877 4.0297 9.23877C3.97749 9.23877 3.92741 9.25951 3.89049 9.29643C3.85357 9.33335 3.83282 9.38343 3.83282 9.43564Z" fill="#1E88E5"/>
<path d="M16.0031 11.3512C16.0031 11.4034 16.0239 11.4535 16.0608 11.4904C16.0977 11.5273 16.1478 11.548 16.2 11.548C16.2522 11.548 16.3023 11.5273 16.3392 11.4904C16.3761 11.4535 16.3969 11.4034 16.3969 11.3512C16.3969 11.299 16.3761 11.2489 16.3392 11.212C16.3023 11.175 16.2522 11.1543 16.2 11.1543C16.1478 11.1543 16.0977 11.175 16.0608 11.212C16.0239 11.2489 16.0031 11.299 16.0031 11.3512Z" fill="#1E88E5"/>
<path d="M13.975 11.3512C13.975 11.4034 13.9957 11.4535 14.0326 11.4904C14.0696 11.5273 14.1196 11.548 14.1718 11.548C14.2241 11.548 14.2741 11.5273 14.3111 11.4904C14.348 11.4535 14.3687 11.4034 14.3687 11.3512C14.3687 11.299 14.348 11.2489 14.3111 11.212C14.2741 11.175 14.2241 11.1543 14.1718 11.1543C14.1196 11.1543 14.0696 11.175 14.0326 11.212C13.9957 11.2489 13.975 11.299 13.975 11.3512Z" fill="#1E88E5"/>
<path d="M11.9469 11.3512C11.9469 11.377 11.952 11.4026 11.9619 11.4265C11.9718 11.4504 11.9863 11.4721 12.0046 11.4904C12.0228 11.5087 12.0445 11.5232 12.0684 11.5331C12.0923 11.543 12.1179 11.548 12.1438 11.548C12.1696 11.548 12.1952 11.543 12.2191 11.5331C12.243 11.5232 12.2647 11.5087 12.283 11.4904C12.3013 11.4721 12.3158 11.4504 12.3257 11.4265C12.3356 11.4026 12.3407 11.377 12.3407 11.3512C12.3407 11.3253 12.3356 11.2997 12.3257 11.2758C12.3158 11.2519 12.3013 11.2302 12.283 11.212C12.2647 11.1937 12.243 11.1792 12.2191 11.1693C12.1952 11.1594 12.1696 11.1543 12.1438 11.1543C12.1179 11.1543 12.0923 11.1594 12.0684 11.1693C12.0445 11.1792 12.0228 11.1937 12.0046 11.212C11.9863 11.2302 11.9718 11.2519 11.9619 11.2758C11.952 11.2997 11.9469 11.3253 11.9469 11.3512Z" fill="#1E88E5"/>
<path d="M9.91718 11.3512C9.91718 11.4034 9.93792 11.4535 9.97484 11.4904C10.0118 11.5273 10.0618 11.548 10.1141 11.548C10.1663 11.548 10.2163 11.5273 10.2533 11.4904C10.2902 11.4535 10.3109 11.4034 10.3109 11.3512C10.3109 11.299 10.2902 11.2489 10.2533 11.212C10.2163 11.175 10.1663 11.1543 10.1141 11.1543C10.0618 11.1543 10.0118 11.175 9.97484 11.212C9.93792 11.2489 9.91718 11.299 9.91718 11.3512Z" fill="#1E88E5"/>
<path d="M7.88904 11.3512C7.88904 11.4034 7.90978 11.4535 7.9467 11.4904C7.98362 11.5273 8.0337 11.548 8.08591 11.548C8.13813 11.548 8.1882 11.5273 8.22512 11.4904C8.26205 11.4535 8.28279 11.4034 8.28279 11.3512C8.28279 11.299 8.26205 11.2489 8.22512 11.212C8.1882 11.175 8.13813 11.1543 8.08591 11.1543C8.0337 11.1543 7.98362 11.175 7.9467 11.212C7.90978 11.2489 7.88904 11.299 7.88904 11.3512Z" fill="#1E88E5"/>
<path d="M5.86096 11.3512C5.86096 11.4034 5.8817 11.4535 5.91863 11.4904C5.95555 11.5273 6.00562 11.548 6.05784 11.548C6.11005 11.548 6.16013 11.5273 6.19705 11.4904C6.23397 11.4535 6.25471 11.4034 6.25471 11.3512C6.25471 11.299 6.23397 11.2489 6.19705 11.212C6.16013 11.175 6.11005 11.1543 6.05784 11.1543C6.00562 11.1543 5.95555 11.175 5.91863 11.212C5.8817 11.2489 5.86096 11.299 5.86096 11.3512Z" fill="#1E88E5"/>
<path d="M3.83282 11.3512C3.83282 11.4034 3.85357 11.4535 3.89049 11.4904C3.92741 11.5273 3.97749 11.548 4.0297 11.548C4.08191 11.548 4.13199 11.5273 4.16891 11.4904C4.20583 11.4535 4.22657 11.4034 4.22657 11.3512C4.22657 11.299 4.20583 11.2489 4.16891 11.212C4.13199 11.175 4.08191 11.1543 4.0297 11.1543C3.97749 11.1543 3.92741 11.175 3.89049 11.212C3.85357 11.2489 3.83282 11.299 3.83282 11.3512Z" fill="#1E88E5"/>
<path d="M16.0031 15.1842C16.0031 15.2364 16.0239 15.2865 16.0608 15.3234C16.0977 15.3603 16.1478 15.3811 16.2 15.3811C16.2522 15.3811 16.3023 15.3603 16.3392 15.3234C16.3761 15.2865 16.3969 15.2364 16.3969 15.1842C16.3969 15.132 16.3761 15.0819 16.3392 15.045C16.3023 15.008 16.2522 14.9873 16.2 14.9873C16.1478 14.9873 16.0977 15.008 16.0608 15.045C16.0239 15.0819 16.0031 15.132 16.0031 15.1842Z" fill="#1E88E5"/>
<path d="M13.975 15.1842C13.975 15.2364 13.9957 15.2865 14.0326 15.3234C14.0696 15.3603 14.1196 15.3811 14.1718 15.3811C14.2241 15.3811 14.2741 15.3603 14.3111 15.3234C14.348 15.2865 14.3687 15.2364 14.3687 15.1842C14.3687 15.132 14.348 15.0819 14.3111 15.045C14.2741 15.008 14.2241 14.9873 14.1718 14.9873C14.1196 14.9873 14.0696 15.008 14.0326 15.045C13.9957 15.0819 13.975 15.132 13.975 15.1842Z" fill="#1E88E5"/>
<path d="M11.9469 15.1842C11.9469 15.21 11.952 15.2356 11.9619 15.2595C11.9718 15.2834 11.9863 15.3051 12.0046 15.3234C12.0228 15.3417 12.0445 15.3562 12.0684 15.3661C12.0923 15.376 12.1179 15.3811 12.1438 15.3811C12.1696 15.3811 12.1952 15.376 12.2191 15.3661C12.243 15.3562 12.2647 15.3417 12.283 15.3234C12.3013 15.3051 12.3158 15.2834 12.3257 15.2595C12.3356 15.2356 12.3407 15.21 12.3407 15.1842C12.3407 15.1583 12.3356 15.1327 12.3257 15.1088C12.3158 15.085 12.3013 15.0633 12.283 15.045C12.2647 15.0267 12.243 15.0122 12.2191 15.0023C12.1952 14.9924 12.1696 14.9873 12.1438 14.9873C12.1179 14.9873 12.0923 14.9924 12.0684 15.0023C12.0445 15.0122 12.0228 15.0267 12.0046 15.045C11.9863 15.0633 11.9718 15.085 11.9619 15.1088C11.952 15.1327 11.9469 15.1583 11.9469 15.1842Z" fill="#1E88E5"/>
<path d="M9.91718 15.1842C9.91718 15.2364 9.93792 15.2865 9.97484 15.3234C10.0118 15.3603 10.0618 15.3811 10.1141 15.3811C10.1663 15.3811 10.2163 15.3603 10.2533 15.3234C10.2902 15.2865 10.3109 15.2364 10.3109 15.1842C10.3109 15.132 10.2902 15.0819 10.2533 15.045C10.2163 15.008 10.1663 14.9873 10.1141 14.9873C10.0618 14.9873 10.0118 15.008 9.97484 15.045C9.93792 15.0819 9.91718 15.132 9.91718 15.1842Z" fill="#1E88E5"/>
<path d="M7.88904 15.1842C7.88904 15.2364 7.90978 15.2865 7.9467 15.3234C7.98362 15.3603 8.0337 15.3811 8.08591 15.3811C8.13813 15.3811 8.1882 15.3603 8.22512 15.3234C8.26205 15.2865 8.28279 15.2364 8.28279 15.1842C8.28279 15.132 8.26205 15.0819 8.22512 15.045C8.1882 15.008 8.13813 14.9873 8.08591 14.9873C8.0337 14.9873 7.98362 15.008 7.9467 15.045C7.90978 15.0819 7.88904 15.132 7.88904 15.1842Z" fill="#1E88E5"/>
<path d="M5.86096 15.1842C5.86096 15.2364 5.8817 15.2865 5.91863 15.3234C5.95555 15.3603 6.00562 15.3811 6.05784 15.3811C6.11005 15.3811 6.16013 15.3603 6.19705 15.3234C6.23397 15.2865 6.25471 15.2364 6.25471 15.1842C6.25471 15.132 6.23397 15.0819 6.19705 15.045C6.16013 15.008 6.11005 14.9873 6.05784 14.9873C6.00562 14.9873 5.95555 15.008 5.91863 15.045C5.8817 15.0819 5.86096 15.132 5.86096 15.1842Z" fill="#1E88E5"/>
<path d="M3.83282 15.1842C3.83282 15.2364 3.85357 15.2865 3.89049 15.3234C3.92741 15.3603 3.97749 15.3811 4.0297 15.3811C4.08191 15.3811 4.13199 15.3603 4.16891 15.3234C4.20583 15.2865 4.22657 15.2364 4.22657 15.1842C4.22657 15.132 4.20583 15.0819 4.16891 15.045C4.13199 15.008 4.08191 14.9873 4.0297 14.9873C3.97749 14.9873 3.92741 15.008 3.89049 15.045C3.85357 15.0819 3.83282 15.132 3.83282 15.1842Z" fill="#1E88E5"/>
<path d="M16.0031 13.2687C16.0031 13.3209 16.0239 13.3709 16.0608 13.4079C16.0977 13.4448 16.1478 13.4655 16.2 13.4655C16.2522 13.4655 16.3023 13.4448 16.3392 13.4079C16.3761 13.3709 16.3969 13.3209 16.3969 13.2687C16.3969 13.2164 16.3761 13.1664 16.3392 13.1294C16.3023 13.0925 16.2522 13.0718 16.2 13.0718C16.1478 13.0718 16.0977 13.0925 16.0608 13.1294C16.0239 13.1664 16.0031 13.2164 16.0031 13.2687Z" fill="#1E88E5"/>
<path d="M13.975 13.2687C13.975 13.3209 13.9957 13.3709 14.0326 13.4079C14.0696 13.4448 14.1196 13.4655 14.1718 13.4655C14.2241 13.4655 14.2741 13.4448 14.3111 13.4079C14.348 13.3709 14.3687 13.3209 14.3687 13.2687C14.3687 13.2164 14.348 13.1664 14.3111 13.1294C14.2741 13.0925 14.2241 13.0718 14.1718 13.0718C14.1196 13.0718 14.0696 13.0925 14.0326 13.1294C13.9957 13.1664 13.975 13.2164 13.975 13.2687Z" fill="#1E88E5"/>
<path d="M11.9469 13.2687C11.9469 13.2945 11.952 13.3201 11.9619 13.344C11.9718 13.3679 11.9863 13.3896 12.0046 13.4079C12.0228 13.4261 12.0445 13.4406 12.0684 13.4505C12.0923 13.4604 12.1179 13.4655 12.1438 13.4655C12.1696 13.4655 12.1952 13.4604 12.2191 13.4505C12.243 13.4406 12.2647 13.4261 12.283 13.4079C12.3013 13.3896 12.3158 13.3679 12.3257 13.344C12.3356 13.3201 12.3407 13.2945 12.3407 13.2687C12.3407 13.2428 12.3356 13.2172 12.3257 13.1933C12.3158 13.1694 12.3013 13.1477 12.283 13.1294C12.2647 13.1112 12.243 13.0967 12.2191 13.0868C12.1952 13.0769 12.1696 13.0718 12.1438 13.0718C12.1179 13.0718 12.0923 13.0769 12.0684 13.0868C12.0445 13.0967 12.0228 13.1112 12.0046 13.1294C11.9863 13.1477 11.9718 13.1694 11.9619 13.1933C11.952 13.2172 11.9469 13.2428 11.9469 13.2687Z" fill="#1E88E5"/>
<path d="M9.91718 13.2687C9.91718 13.3209 9.93792 13.3709 9.97484 13.4079C10.0118 13.4448 10.0618 13.4655 10.1141 13.4655C10.1663 13.4655 10.2163 13.4448 10.2533 13.4079C10.2902 13.3709 10.3109 13.3209 10.3109 13.2687C10.3109 13.2164 10.2902 13.1664 10.2533 13.1294C10.2163 13.0925 10.1663 13.0718 10.1141 13.0718C10.0618 13.0718 10.0118 13.0925 9.97484 13.1294C9.93792 13.1664 9.91718 13.2164 9.91718 13.2687Z" fill="#1E88E5"/>
<path d="M7.88904 13.2687C7.88904 13.3209 7.90978 13.3709 7.9467 13.4079C7.98362 13.4448 8.0337 13.4655 8.08591 13.4655C8.13813 13.4655 8.1882 13.4448 8.22512 13.4079C8.26205 13.3709 8.28279 13.3209 8.28279 13.2687C8.28279 13.2164 8.26205 13.1664 8.22512 13.1294C8.1882 13.0925 8.13813 13.0718 8.08591 13.0718C8.0337 13.0718 7.98362 13.0925 7.9467 13.1294C7.90978 13.1664 7.88904 13.2164 7.88904 13.2687Z" fill="#1E88E5"/>
<path d="M5.86096 13.2687C5.86096 13.3209 5.8817 13.3709 5.91863 13.4079C5.95555 13.4448 6.00562 13.4655 6.05784 13.4655C6.11005 13.4655 6.16013 13.4448 6.19705 13.4079C6.23397 13.3709 6.25471 13.3209 6.25471 13.2687C6.25471 13.2164 6.23397 13.1664 6.19705 13.1294C6.16013 13.0925 6.11005 13.0718 6.05784 13.0718C6.00562 13.0718 5.95555 13.0925 5.91863 13.1294C5.8817 13.1664 5.86096 13.2164 5.86096 13.2687Z" fill="#1E88E5"/>
<path d="M3.83282 13.2687C3.83282 13.3209 3.85357 13.3709 3.89049 13.4079C3.92741 13.4448 3.97749 13.4655 4.0297 13.4655C4.08191 13.4655 4.13199 13.4448 4.16891 13.4079C4.20583 13.3709 4.22657 13.3209 4.22657 13.2687C4.22657 13.2164 4.20583 13.1664 4.16891 13.1294C4.13199 13.0925 4.08191 13.0718 4.0297 13.0718C3.97749 13.0718 3.92741 13.0925 3.89049 13.1294C3.85357 13.1664 3.83282 13.2164 3.83282 13.2687Z" fill="#1E88E5"/>
<defs>
<linearGradient id="paint0_linear_412_2272" x1="18.2891" y1="10.7236" x2="18.2891" y2="17.3988" gradientUnits="userSpaceOnUse">
<stop offset="0.337" stop-color="#616161"/>
<stop offset="1" stop-color="#616161" stop-opacity="0"/>
</linearGradient>
</defs>
</svg>
